G04 Layer: TopSilkLayer*
G04 EasyEDA v6.4.20.6, 2021-07-12T14:55:30+02:00*
G04 d0fccb6582e04fcdb478b3de06c523d3,74a9197d99fe486e8768ab895f0c19fe,10*
G04 Gerber Generator version 0.2*
G04 Scale: 100 percent, Rotated: No, Reflected: No *
G04 Dimensions in millimeters *
G04 leading zeros omitted , absolute positions ,4 integer and 5 decimal *
%FSLAX45Y45*%
%MOMM*%

%ADD10C,0.2540*%
%ADD13C,0.2032*%
%ADD19C,0.2030*%
%ADD20C,0.4000*%
%ADD21C,0.1524*%

%LPD*%
D21*
X1980691Y-11110721D02*
G01*
X1970277Y-11116055D01*
X1959863Y-11126470D01*
X1954784Y-11136629D01*
X1954784Y-11157458D01*
X1959863Y-11167871D01*
X1970277Y-11178286D01*
X1980691Y-11183620D01*
X1996440Y-11188700D01*
X2022347Y-11188700D01*
X2037841Y-11183620D01*
X2048256Y-11178286D01*
X2058670Y-11167871D01*
X2063750Y-11157458D01*
X2063750Y-11136629D01*
X2058670Y-11126470D01*
X2048256Y-11116055D01*
X2037841Y-11110721D01*
X1954784Y-11076431D02*
G01*
X2063750Y-11076431D01*
X1954784Y-11003787D02*
G01*
X2063750Y-11003787D01*
X2006600Y-11076431D02*
G01*
X2006600Y-11003787D01*
X1975611Y-10969497D02*
G01*
X1970277Y-10959084D01*
X1954784Y-10943589D01*
X2063750Y-10943589D01*
X3326891Y-11110721D02*
G01*
X3316477Y-11116055D01*
X3306063Y-11126470D01*
X3300984Y-11136629D01*
X3300984Y-11157458D01*
X3306063Y-11167871D01*
X3316477Y-11178286D01*
X3326891Y-11183620D01*
X3342640Y-11188700D01*
X3368547Y-11188700D01*
X3384041Y-11183620D01*
X3394456Y-11178286D01*
X3404870Y-11167871D01*
X3409950Y-11157458D01*
X3409950Y-11136629D01*
X3404870Y-11126470D01*
X3394456Y-11116055D01*
X3384041Y-11110721D01*
X3300984Y-11076431D02*
G01*
X3409950Y-11076431D01*
X3300984Y-11003787D02*
G01*
X3409950Y-11003787D01*
X3352800Y-11076431D02*
G01*
X3352800Y-11003787D01*
X3326891Y-10964163D02*
G01*
X3321811Y-10964163D01*
X3311397Y-10959084D01*
X3306063Y-10953750D01*
X3300984Y-10943589D01*
X3300984Y-10922762D01*
X3306063Y-10912347D01*
X3311397Y-10907013D01*
X3321811Y-10901934D01*
X3332225Y-10901934D01*
X3342640Y-10907013D01*
X3358134Y-10917428D01*
X3409950Y-10969497D01*
X3409950Y-10896600D01*
X4673091Y-11110721D02*
G01*
X4662677Y-11116055D01*
X4652263Y-11126470D01*
X4647184Y-11136629D01*
X4647184Y-11157458D01*
X4652263Y-11167871D01*
X4662677Y-11178286D01*
X4673091Y-11183620D01*
X4688840Y-11188700D01*
X4714747Y-11188700D01*
X4730241Y-11183620D01*
X4740656Y-11178286D01*
X4751070Y-11167871D01*
X4756150Y-11157458D01*
X4756150Y-11136629D01*
X4751070Y-11126470D01*
X4740656Y-11116055D01*
X4730241Y-11110721D01*
X4647184Y-11076431D02*
G01*
X4756150Y-11076431D01*
X4647184Y-11003787D02*
G01*
X4756150Y-11003787D01*
X4699000Y-11076431D02*
G01*
X4699000Y-11003787D01*
X4647184Y-10959084D02*
G01*
X4647184Y-10901934D01*
X4688840Y-10933176D01*
X4688840Y-10917428D01*
X4693920Y-10907013D01*
X4699000Y-10901934D01*
X4714747Y-10896600D01*
X4725161Y-10896600D01*
X4740656Y-10901934D01*
X4751070Y-10912347D01*
X4756150Y-10927842D01*
X4756150Y-10943589D01*
X4751070Y-10959084D01*
X4745990Y-10964163D01*
X4735575Y-10969497D01*
X3429000Y-11962384D02*
G01*
X3429000Y-12071350D01*
X3429000Y-11962384D02*
G01*
X3475736Y-11962384D01*
X3491229Y-11967463D01*
X3496563Y-11972797D01*
X3501643Y-11983212D01*
X3501643Y-11993626D01*
X3496563Y-12004039D01*
X3491229Y-12009120D01*
X3475736Y-12014200D01*
X3429000Y-12014200D01*
X3465322Y-12014200D02*
G01*
X3501643Y-12071350D01*
X3535934Y-11983212D02*
G01*
X3546347Y-11977878D01*
X3562095Y-11962384D01*
X3562095Y-12071350D01*
X3860800Y-12305284D02*
G01*
X3860800Y-12414250D01*
X3860800Y-12305284D02*
G01*
X3907536Y-12305284D01*
X3923029Y-12310363D01*
X3928363Y-12315697D01*
X3933443Y-12326112D01*
X3933443Y-12336526D01*
X3928363Y-12346939D01*
X3923029Y-12352020D01*
X3907536Y-12357100D01*
X3860800Y-12357100D01*
X3897122Y-12357100D02*
G01*
X3933443Y-12414250D01*
X3973068Y-12331192D02*
G01*
X3973068Y-12326112D01*
X3978147Y-12315697D01*
X3983481Y-12310363D01*
X3993895Y-12305284D01*
X4014470Y-12305284D01*
X4024884Y-12310363D01*
X4030218Y-12315697D01*
X4035297Y-12326112D01*
X4035297Y-12336526D01*
X4030218Y-12346939D01*
X4019804Y-12362434D01*
X3967734Y-12414250D01*
X4040631Y-12414250D01*
X4229100Y-12571984D02*
G01*
X4229100Y-12680950D01*
X4229100Y-12571984D02*
G01*
X4275836Y-12571984D01*
X4291329Y-12577063D01*
X4296663Y-12582397D01*
X4301743Y-12592812D01*
X4301743Y-12603226D01*
X4296663Y-12613639D01*
X4291329Y-12618720D01*
X4275836Y-12623800D01*
X4229100Y-12623800D01*
X4265422Y-12623800D02*
G01*
X4301743Y-12680950D01*
X4346447Y-12571984D02*
G01*
X4403597Y-12571984D01*
X4372609Y-12613639D01*
X4388104Y-12613639D01*
X4398518Y-12618720D01*
X4403597Y-12623800D01*
X4408931Y-12639547D01*
X4408931Y-12649962D01*
X4403597Y-12665455D01*
X4393184Y-12675870D01*
X4377690Y-12680950D01*
X4362195Y-12680950D01*
X4346447Y-12675870D01*
X4341368Y-12670789D01*
X4336034Y-12660376D01*
X735584Y-10109200D02*
G01*
X844550Y-10109200D01*
X735584Y-10109200D02*
G01*
X735584Y-10062463D01*
X740663Y-10046970D01*
X745997Y-10041636D01*
X756412Y-10036555D01*
X771905Y-10036555D01*
X782320Y-10041636D01*
X787400Y-10046970D01*
X792734Y-10062463D01*
X792734Y-10109200D01*
X735584Y-10002265D02*
G01*
X844550Y-9976104D01*
X735584Y-9950195D02*
G01*
X844550Y-9976104D01*
X735584Y-9950195D02*
G01*
X844550Y-9924287D01*
X735584Y-9898379D02*
G01*
X844550Y-9924287D01*
X735584Y-9864089D02*
G01*
X844550Y-9864089D01*
X735584Y-9864089D02*
G01*
X735584Y-9817100D01*
X740663Y-9801605D01*
X745997Y-9796526D01*
X756412Y-9791192D01*
X766826Y-9791192D01*
X777239Y-9796526D01*
X782320Y-9801605D01*
X787400Y-9817100D01*
X787400Y-9864089D01*
X787400Y-9827513D02*
G01*
X844550Y-9791192D01*
X5346700Y-9282684D02*
G01*
X5346700Y-9360662D01*
X5351779Y-9376155D01*
X5362193Y-9386570D01*
X5377941Y-9391650D01*
X5388356Y-9391650D01*
X5403850Y-9386570D01*
X5414263Y-9376155D01*
X5419343Y-9360662D01*
X5419343Y-9282684D01*
X5464047Y-9282684D02*
G01*
X5521197Y-9282684D01*
X5490209Y-9324339D01*
X5505704Y-9324339D01*
X5516118Y-9329420D01*
X5521197Y-9334500D01*
X5526531Y-9350247D01*
X5526531Y-9360662D01*
X5521197Y-9376155D01*
X5510784Y-9386570D01*
X5495290Y-9391650D01*
X5479795Y-9391650D01*
X5464047Y-9386570D01*
X5458968Y-9381489D01*
X5453634Y-9371076D01*
X4013200Y-9282684D02*
G01*
X4013200Y-9360662D01*
X4018279Y-9376155D01*
X4028693Y-9386570D01*
X4044441Y-9391650D01*
X4054856Y-9391650D01*
X4070350Y-9386570D01*
X4080763Y-9376155D01*
X4085843Y-9360662D01*
X4085843Y-9282684D01*
X4125468Y-9308592D02*
G01*
X4125468Y-9303512D01*
X4130547Y-9293097D01*
X4135881Y-9287763D01*
X4146295Y-9282684D01*
X4166870Y-9282684D01*
X4177284Y-9287763D01*
X4182618Y-9293097D01*
X4187697Y-9303512D01*
X4187697Y-9313926D01*
X4182618Y-9324339D01*
X4172204Y-9339834D01*
X4120134Y-9391650D01*
X4193031Y-9391650D01*
X2654300Y-9282684D02*
G01*
X2654300Y-9360662D01*
X2659379Y-9376155D01*
X2669793Y-9386570D01*
X2685541Y-9391650D01*
X2695956Y-9391650D01*
X2711450Y-9386570D01*
X2721863Y-9376155D01*
X2726943Y-9360662D01*
X2726943Y-9282684D01*
X2761234Y-9303512D02*
G01*
X2771647Y-9298178D01*
X2787395Y-9282684D01*
X2787395Y-9391650D01*
X1601470Y-12114784D02*
G01*
X1601470Y-12197842D01*
X1596136Y-12213589D01*
X1591055Y-12218670D01*
X1580642Y-12223750D01*
X1570228Y-12223750D01*
X1559813Y-12218670D01*
X1554479Y-12213589D01*
X1549400Y-12197842D01*
X1549400Y-12187428D01*
X1635760Y-12135612D02*
G01*
X1645920Y-12130278D01*
X1661668Y-12114784D01*
X1661668Y-12223750D01*
G36*
X1695246Y-9562084D02*
G01*
X1695246Y-9622078D01*
X1815236Y-9622078D01*
X1815236Y-9562084D01*
G37*
G36*
X5833821Y-10242346D02*
G01*
X5833821Y-10362336D01*
X5893816Y-10362336D01*
X5893816Y-10242346D01*
G37*
G36*
X4500321Y-10242346D02*
G01*
X4500321Y-10362336D01*
X4560316Y-10362336D01*
X4560316Y-10242346D01*
G37*
G36*
X3141421Y-10242346D02*
G01*
X3141421Y-10362336D01*
X3201416Y-10362336D01*
X3201416Y-10242346D01*
G37*
D10*
X2111603Y-10883290D02*
G01*
X3171596Y-10883290D01*
X3171596Y-11363299D01*
X2111603Y-11363299D01*
X2111603Y-10883290D01*
X3171596Y-10933303D02*
G01*
X2111603Y-10933303D01*
X3457803Y-10883290D02*
G01*
X4517796Y-10883290D01*
X4517796Y-11363299D01*
X3457803Y-11363299D01*
X3457803Y-10883290D01*
X4517796Y-10933303D02*
G01*
X3457803Y-10933303D01*
X4804003Y-10883290D02*
G01*
X5863996Y-10883290D01*
X5863996Y-11363299D01*
X4804003Y-11363299D01*
X4804003Y-10883290D01*
X5863996Y-10933303D02*
G01*
X4804003Y-10933303D01*
X883894Y-10634599D02*
G01*
X883894Y-9634601D01*
X1883892Y-9634601D01*
X1883892Y-10634599D01*
X883894Y-10634599D01*
X984300Y-10634599D02*
G01*
X984300Y-9634601D01*
X1084300Y-9634601D01*
X1084300Y-10634599D01*
X984300Y-10634599D01*
X4821300Y-9430994D02*
G01*
X5821299Y-9430994D01*
X5821299Y-10430992D01*
X4821300Y-10430992D01*
X4821300Y-9430994D01*
X4821300Y-9531400D02*
G01*
X5821299Y-9531400D01*
X5821299Y-9631400D01*
X4821300Y-9631400D01*
X4821300Y-9531400D01*
X3487800Y-9430994D02*
G01*
X4487799Y-9430994D01*
X4487799Y-10430992D01*
X3487800Y-10430992D01*
X3487800Y-9430994D01*
X3487800Y-9531400D02*
G01*
X4487799Y-9531400D01*
X4487799Y-9631400D01*
X3487800Y-9631400D01*
X3487800Y-9531400D01*
X2128900Y-9430994D02*
G01*
X3128899Y-9430994D01*
X3128899Y-10430992D01*
X2128900Y-10430992D01*
X2128900Y-9430994D01*
X2128900Y-9531400D02*
G01*
X3128899Y-9531400D01*
X3128899Y-9631400D01*
X2128900Y-9631400D01*
X2128900Y-9531400D01*
D13*
X2057400Y-12255500D02*
G01*
X2057400Y-12509500D01*
X1041400Y-12509500D01*
X1041400Y-12255500D01*
X1231900Y-12255500D01*
D19*
X2057400Y-12255500D02*
G01*
X1231900Y-12255500D01*
D20*
G75*
G01*
X2364740Y-11409680D02*
G03*
X2364994Y-11409680I127J-20000D01*
G75*
G01*
X3710940Y-11409680D02*
G03*
X3711194Y-11409680I127J-20000D01*
G75*
G01*
X5057140Y-11409680D02*
G03*
X5057394Y-11409680I127J-20000D01*
M02*
