M48
METRIC,LZ,000.000
;FILE_FORMAT=3:3
;TYPE=PLATED
;Layer: Drill PTH
;EasyEDA v6.4.20.6, 2021-07-12T14:55:30+02:00
;d0fccb6582e04fcdb478b3de06c523d3,74a9197d99fe486e8768ab895f0c19fe,10
;Gerber Generator version 0.2
;Holesize 1 = 0.889 mm
T01C0.889
;Holesize 2 = 0.915 mm
T02C0.915
;Holesize 3 = 1.000 mm
T03C1.000
;Holesize 4 = 1.400 mm
T04C1.400
%
G05
G90
T01
X011684Y-123825
X014224Y-123825
X016764Y-123825
X019304Y-123825
T02
X027940Y-122047
X040940Y-122047
X032258Y-125476
X045258Y-125476
X035941Y-128143
X048941Y-128143
T03
X013843Y-098806
X013843Y-103886
X055753Y-099314
X050673Y-099314
X042418Y-099314
X037338Y-099314
X028829Y-099314
X023749Y-099314
T04
X023876Y-111633
X028956Y-111633
X026416Y-111633
X037338Y-111633
X042418Y-111633
X039878Y-111633
X050800Y-111633
X055880Y-111633
X053340Y-111633
M30
